<svg id="Layer_1" data-name="Layer 1" xmlns="http://www.w3.org/2000/svg" viewBox="0 0 704.28 376.07"><defs><style>.cls-1{fill:#fff;}.cls-2{fill:#d98827;}</style></defs><path class="cls-1" d="M427.34,300.92H415.22V217h50v12.12H427.34V252.8h33.6V265h-33.6Z"/><path class="cls-1" d="M479.9,228.56a42.44,42.44,0,0,1,60.59,0,43.17,43.17,0,0,1,0,60.72,42.44,42.44,0,0,1-60.59,0,43.17,43.17,0,0,1,0-60.72Zm52,8.64a30.89,30.89,0,0,0-21.72-9.12,30.12,30.12,0,0,0-21.48,9.12,30.71,30.71,0,0,0,0,43.44,30.12,30.12,0,0,0,21.48,9.12,30.89,30.89,0,0,0,21.72-52.56Z"/><path class="cls-1" d="M577.1,258.32h14.16c10.2,0,15.24-7.32,15.24-14.64s-5-14.52-15.24-14.52h-18.6v71.76h-12v-84h30.6c18.24,0,27.36,13.44,27.36,26.76,0,11.88-7.32,23.16-21.72,25.68l26.51,31.56H607.7l-30.6-36.84Z"/><path class="cls-1" d="M639.26,300.92H627.14v-84H637l27.71,40.8,27.72-40.8H702v84H690V241.76l-22,32.64h-6.84l-22-32.64Z"/><path class="cls-1" d="M130.46,300.92H118.34v-84h9.84l27.72,40.8,27.72-40.8h9.6v84h-12V241.76l-22,32.64h-6.84l-22-32.64Z"/><path class="cls-1" d="M220.58,288.8h39v12.12H208.34V217h51.12v12.12H220.58V252.8h38V265h-38Z"/><path class="cls-1" d="M289.58,301.28V228.2H264.14V216.92H327V228.2H301.7v73.08Z"/><path class="cls-1" d="M373.46,276.2H343.34c-3.24,7.68-7.44,17.76-10.08,24.72H320.18l33.72-85.08h8.88l33.71,85.08h-13ZM347.9,264.8h20.88l-10.32-29.64Z"/><path class="cls-2" d="M336.59,330.93a16.88,16.88,0,0,1,12.1-5.2c8,0,14.3,5,16.3,12.9h-5a11.39,11.39,0,0,0-11.3-7.9,11.91,11.91,0,0,0-8.6,3.75,12.93,12.93,0,0,0,0,17.9,12,12,0,0,0,20.2-4.6h4.95c-2,8-8.4,13.35-16.55,13.35a16.68,16.68,0,0,1-12.1-5.2,18.12,18.12,0,0,1,0-25Z"/><path class="cls-2" d="M374,330.73a17.69,17.69,0,0,1,25.25,0,18,18,0,0,1,0,25.3A17.69,17.69,0,0,1,374,356a18,18,0,0,1,0-25.3Zm21.65,3.6a12.87,12.87,0,0,0-9.05-3.8,12.55,12.55,0,0,0-8.95,3.8,12.8,12.8,0,0,0,0,18.1,12.55,12.55,0,0,0,8.95,3.8,12.87,12.87,0,0,0,9.05-21.9Z"/><path class="cls-2" d="M409.64,360.88V325.83l3.9.05,17,24.65V325.88h5v35h-4l-16.9-24.45v24.45Z"/><path class="cls-2" d="M459.59,334.93c-.7-3.15-4.1-4.5-7.15-4.45-2.35,0-4.95.85-6.35,2.65a4.58,4.58,0,0,0-.85,3.25c.25,3.6,4.2,4.05,7.95,4.4,4.8.6,10.75,1.85,12.1,7.45a12.44,12.44,0,0,1,.25,2.3c0,6.75-6.7,10.65-13,10.65-5.4,0-12-3.2-12.6-9.45l-.05-1,5.1-.1.05.75v-.2c.35,3.25,4.3,4.95,7.55,4.95,3.75,0,7.85-2.1,7.85-5.7a5.6,5.6,0,0,0-.15-1.2c-.6-2.65-4.2-3.1-7.7-3.45-5.45-.55-11.85-1.75-12.4-9.05v.05a9.47,9.47,0,0,1,1.9-6.65c2.35-3.05,6.55-4.65,10.6-4.65,5.4,0,11,2.8,11.9,9.2Z"/><path class="cls-2" d="M474.84,361V330.58h-10.6v-4.7h26.2v4.7H479.89V361Z"/><path class="cls-2" d="M501.64,343.13h5.9a6.08,6.08,0,1,0,0-12.15h-7.75v29.9h-5v-35h12.75c7.6,0,11.4,5.6,11.4,11.15a10.54,10.54,0,0,1-9.05,10.7l11.05,13.15h-6.55l-12.75-15.35Z"/><path class="cls-2" d="M523.38,350.38V325.93h5.11v24.5c0,3.85,4.15,5.75,7.85,5.75s7.8-1.95,7.8-5.8V325.93h5.1v24.5c0,7.1-6.9,10.8-12.9,10.8S523.38,357.53,523.38,350.38Z"/><path class="cls-2" d="M557.49,330.93a16.86,16.86,0,0,1,12.1-5.2c8,0,14.3,5,16.3,12.9h-5a11.39,11.39,0,0,0-11.3-7.9,11.91,11.91,0,0,0-8.6,3.75,12.9,12.9,0,0,0,0,17.9,12,12,0,0,0,20.2-4.6h4.95c-2,8-8.4,13.35-16.55,13.35a16.67,16.67,0,0,1-12.1-5.2,18.1,18.1,0,0,1,0-25Z"/><path class="cls-2" d="M598.38,361V330.58h-10.6v-4.7H614v4.7H603.44V361Z"/><path class="cls-2" d="M635.78,330.93h-6.5v24.9h6.5v5.05h-18v-5.05h6.5v-24.9h-6.5v-5h18Z"/><path class="cls-2" d="M642.73,330.73a17.7,17.7,0,0,1,25.26,0,18,18,0,0,1,0,25.3,17.7,17.7,0,0,1-25.26,0,18,18,0,0,1,0-25.3Zm21.65,3.6a12.87,12.87,0,0,0-9-3.8,12.55,12.55,0,0,0-9,3.8,12.8,12.8,0,0,0,0,18.1,12.55,12.55,0,0,0,9,3.8,12.87,12.87,0,0,0,9-21.9Z"/><path class="cls-2" d="M678.33,360.88V325.83l3.9.05,17,24.65V325.88h5v35h-4l-16.9-24.45v24.45Z"/><rect class="cls-2" y="372.57" width="366.27" height="3.5"/><rect class="cls-2" x="304.8" y="92.5" width="188.51" height="3.5" transform="translate(493.31 -304.8) rotate(90)"/><polygon class="cls-2" points="0 376.07 0.03 151.08 3.5 150.12 3.5 376.07 0 376.07"/><rect class="cls-2" x="-7.59" y="89.62" width="474.28" height="3.5" transform="translate(474.92 120.21) rotate(165)"/><rect class="cls-2" x="42.29" y="338.66" width="274.08" height="13.5"/><rect class="cls-2" x="-41.56" y="243.67" width="181.19" height="13.5" transform="translate(-201.38 299.46) rotate(-90)"/><polygon class="cls-2" points="428.72 207.24 428.61 56.08 415.22 59.59 415.22 207.24 428.72 207.24"/><rect class="cls-2" x="37.28" y="108.1" width="396.39" height="13.5" transform="translate(492.66 164.83) rotate(165)"/></svg>