<svg id="Layer_1" data-name="Layer 1" xmlns="http://www.w3.org/2000/svg" viewBox="0 0 86.15 46"><defs><style>.cls-1{fill:#fff;}.cls-2{fill:#d98827;}</style></defs><path class="cls-1" d="M52.27,36.81H50.79V26.55h6.12V28H52.27v2.89h4.11v1.5H52.27Z"/><path class="cls-1" d="M58.7,28a5.18,5.18,0,0,1,7.41,0,5.26,5.26,0,0,1,0,7.42,5.18,5.18,0,0,1-7.41,0,5.26,5.26,0,0,1,0-7.42ZM65.06,29A3.79,3.79,0,0,0,62.4,27.9,3.7,3.7,0,0,0,59.77,29a3.77,3.77,0,0,0,0,5.32,3.7,3.7,0,0,0,2.63,1.11A3.78,3.78,0,0,0,65.06,29Z"/><path class="cls-1" d="M70.59,31.6h1.73a1.79,1.79,0,1,0,0-3.57H70.05v8.78H68.58V26.53h3.74a3.19,3.19,0,0,1,3.35,3.28A3.1,3.1,0,0,1,73,33l3.25,3.86H74.33L70.59,32.3Z"/><path class="cls-1" d="M78.19,36.81H76.71V26.53h1.2l3.39,5,3.39-5h1.18V36.81H84.4V29.57l-2.68,4h-.84l-2.69-4Z"/><path class="cls-1" d="M16,36.81H14.48V26.53h1.2l3.39,5,3.39-5h1.17V36.81H22.17V29.57l-2.69,4h-.84l-2.68-4Z"/><path class="cls-1" d="M27,35.33h4.77v1.48H25.48V26.55h6.26V28H27v2.89h4.65v1.5H27Z"/><path class="cls-1" d="M35.42,36.85V27.91H32.31V26.53H40v1.38H36.9v8.94Z"/><path class="cls-1" d="M45.68,33.78H42c-.4.94-.91,2.18-1.24,3h-1.6L43.29,26.4h1.08L48.5,36.81H46.91Zm-3.13-1.39h2.56l-1.26-3.63Z"/><path class="cls-2" d="M41.17,40.48a2,2,0,0,1,1.48-.64,2,2,0,0,1,2,1.58H44a1.39,1.39,0,0,0-1.38-1,1.46,1.46,0,0,0-1,.46,1.58,1.58,0,0,0,0,2.19,1.47,1.47,0,0,0,2.47-.56h.61a2.07,2.07,0,0,1-2,1.63,2,2,0,0,1-1.48-.63,2.22,2.22,0,0,1,0-3.06Z"/><path class="cls-2" d="M45.75,40.45a2.19,2.19,0,0,1,1.54-.64,2.19,2.19,0,0,1,1.55,3.74,2.18,2.18,0,0,1-1.55.65,2.15,2.15,0,0,1-1.54-.65,2.22,2.22,0,0,1,0-3.1Zm2.65.44a1.62,1.62,0,0,0-1.11-.46,1.55,1.55,0,0,0-1.09.46A1.6,1.6,0,0,0,45.74,42a1.56,1.56,0,0,0,.46,1.11,1.51,1.51,0,0,0,1.09.46,1.57,1.57,0,0,0,1.11-.46A1.56,1.56,0,0,0,48.85,42,1.57,1.57,0,0,0,48.4,40.89Z"/><path class="cls-2" d="M50.11,44.14V39.85h.47l2.09,3v-3h.61v4.28h-.49l-2.07-3v3Z"/><path class="cls-2" d="M56.22,41a.84.84,0,0,0-.88-.55,1.06,1.06,0,0,0-.78.33.6.6,0,0,0-.1.4c0,.44.51.49,1,.53s1.32.23,1.48.92a1.33,1.33,0,0,1,0,.28,1.61,1.61,0,0,1-3.13.14v-.11l.62,0V43c0,.4.52.61.92.61s1-.26,1-.7a1,1,0,0,0,0-.15c-.07-.32-.51-.38-.94-.42-.67-.07-1.45-.21-1.52-1.11h0a1.14,1.14,0,0,1,.24-.81,1.61,1.61,0,0,1,1.29-.57,1.36,1.36,0,0,1,1.46,1.12Z"/><path class="cls-2" d="M58.08,44.16V40.44h-1.3v-.58H60v.58H58.7v3.72Z"/><path class="cls-2" d="M61.36,42h.72a.75.75,0,1,0,0-1.49h-.95v3.66h-.61V39.86h1.56a1.33,1.33,0,0,1,1.4,1.36,1.29,1.29,0,0,1-1.11,1.31l1.35,1.61h-.8l-1.56-1.88Z"/><path class="cls-2" d="M64,42.86v-3h.62v3c0,.48.51.71,1,.71s1-.24,1-.71v-3h.62v3a1.6,1.6,0,0,1-3.16,0Z"/><path class="cls-2" d="M68.19,40.48a2,2,0,0,1,1.48-.64,2,2,0,0,1,2,1.58h-.61a1.39,1.39,0,0,0-1.38-1,1.46,1.46,0,0,0-1,.46,1.58,1.58,0,0,0,0,2.19,1.47,1.47,0,0,0,2.47-.56h.61a2.07,2.07,0,0,1-2,1.63,2,2,0,0,1-1.48-.63,2.22,2.22,0,0,1,0-3.06Z"/><path class="cls-2" d="M73.19,44.16V40.44H71.9v-.58h3.2v.58H73.81v3.72Z"/><path class="cls-2" d="M77.77,40.48H77v3h.8v.62H75.56v-.62h.8v-3h-.8v-.61h2.21Z"/><path class="cls-2" d="M78.62,40.45a2.19,2.19,0,0,1,1.54-.64,2.21,2.21,0,0,1,1.55.64,2.22,2.22,0,0,1,0,3.1,2.18,2.18,0,0,1-1.55.65,2.15,2.15,0,0,1-1.54-.65,2.2,2.2,0,0,1,0-3.1Zm2.65.44a1.62,1.62,0,0,0-1.11-.46A1.55,1.55,0,0,0,78.61,42a1.55,1.55,0,0,0,1.55,1.57,1.57,1.57,0,0,0,1.11-.46A1.6,1.6,0,0,0,81.72,42,1.62,1.62,0,0,0,81.27,40.89Z"/><path class="cls-2" d="M83,44.14V39.85h.48l2.09,3v-3h.61v4.28h-.49l-2.07-3v3Z"/><rect class="cls-2" y="45.57" width="44.8" height="0.43"/><rect class="cls-2" x="37.28" y="11.31" width="23.06" height="0.43" transform="translate(60.34 -37.28) rotate(90)"/><polygon class="cls-2" points="0 46 0 18.48 0.43 18.36 0.43 46 0 46"/><rect class="cls-2" x="-0.93" y="10.96" width="58.01" height="0.43" transform="translate(58.09 14.7) rotate(165)"/><rect class="cls-2" x="5.17" y="41.42" width="33.52" height="1.65"/><rect class="cls-2" x="-5.08" y="29.81" width="22.16" height="1.65" transform="translate(-24.63 36.63) rotate(-90)"/><polygon class="cls-2" points="52.44 25.35 52.43 6.86 50.79 7.29 50.79 25.35 52.44 25.35"/><rect class="cls-2" x="4.56" y="13.22" width="48.49" height="1.65" transform="translate(60.26 20.16) rotate(165)"/></svg>